<?xml version="1.0" encoding="utf-8"?>
<!-- Generator: Adobe Illustrator 16.0.0, SVG Export Plug-In . SVG Version: 6.00 Build 0)  -->
<!DOCTYPE svg PUBLIC "-//W3C//DTD SVG 1.1//EN" "http://www.w3.org/Graphics/SVG/1.1/DTD/svg11.dtd">
<svg version="1.1" id="Layer_1" xmlns="http://www.w3.org/2000/svg" xmlns:xlink="http://www.w3.org/1999/xlink" x="0px" y="0px"
	 width="2008px" height="1490px" viewBox="0 0 2008 1490" enable-background="new 0 0 2008 1490" xml:space="preserve">
<g transform="matrix( 1, 0, 0, 1, 0,0) ">
	<g>
		<g id="Layer0_0_FILL">
			<path fill="#C48647" d="M1838,716.8l-5.45-1.45l-1.35,4.95l5.45,1.45L1838,716.8 M1828.3,695.3
				c-0.333-1.3-1.149-1.767-2.45-1.399l-25.8,6.899c-1.3,0.367-1.783,1.2-1.45,2.5l4.2,15.65c0.334,1.267,1.15,1.717,2.45,1.35
				l16.1-4.3c-1.6-1.3-2.616-2.783-3.05-4.45l9.851,2.65l2.899-0.8c1.3-0.367,1.783-1.184,1.45-2.45L1828.3,695.3 M1825.85,699.55
				c1.033,1.033,1.551,2.283,1.551,3.75c0,1.5-0.518,2.767-1.551,3.8s-2.3,1.551-3.8,1.551c-0.5,0-0.967-0.051-1.399-0.15
				c-0.134,0.133-0.284,0.283-0.45,0.45c-1.033,1.033-2.3,1.55-3.8,1.55c-1.467,0-2.717-0.517-3.75-1.55s-1.551-2.3-1.551-3.8
				c0-1.467,0.518-2.717,1.551-3.75s2.283-1.551,3.75-1.551c0.533,0,1.033,0.067,1.5,0.2c0.1-0.167,0.233-0.333,0.399-0.5
				c1.033-1.033,2.283-1.55,3.75-1.55C1823.55,698,1824.816,698.517,1825.85,699.55 M1814.25,638.55l-1.35-0.8v0.05l-4.4,7.65
				l3.5,2.05l4.4-7.7L1814.25,638.55 M1762.65,721.75l1.35-4.95l-5.45-1.45l-1.35,4.95L1762.65,721.75 M1754.3,695.3
				c-0.333-1.3-1.149-1.767-2.45-1.399l-25.8,6.899c-1.3,0.367-1.783,1.2-1.45,2.5l4.2,15.65c0.334,1.267,1.15,1.717,2.45,1.35
				l16.1-4.3c-1.6-1.3-2.616-2.783-3.05-4.45l9.851,2.65l2.899-0.8c1.3-0.367,1.783-1.184,1.45-2.45L1754.3,695.3 M1609.25,430.25
				l5.1-31.6l-30.6-4.95l-5.1,31.6L1609.25,430.25 M1604.65,402.1l3.949,0.65l-0.649,3.95l-2.851,17.8l-17.75-2.85l-3-0.5l0.65-3.95
				l2.85-17.8L1604.65,402.1 M1612,322h-31v32h31V322 M1586,345v-18h17h4v4v18h-18h-3V345 M1542.55,383.25l-49.3,8.2l8.2,49.3
				l49.3-8.2L1542.55,383.25 M1530.05,393.45l5.9-1l1,5.899l4.6,27.601l-27.6,4.6l-5.95,1l-1-5.899l-4.6-27.601L1530.05,393.45
				 M1497,313v50h50v-50H1497 M1505,321h28h6v6v28h-28h-6v-6V321"/>
			<path fill="#956536" d="M1828.45,692.25c-0.834-0.533-1.884-0.617-3.15-0.25h0.05l-25.8,6.9h-0.05
				c-2.566,0.699-3.5,2.333-2.8,4.899v0.05l4.2,15.65v-0.05c0.333,1.267,0.933,2.116,1.8,2.55c0.8,0.5,1.833,0.583,3.1,0.25
				l15.15-4.05c2.3,1.633,5.566,2.983,9.8,4.05h-0.05l5.45,1.45c0.533,0.133,1.033,0.066,1.5-0.2c0.467-0.3,0.783-0.7,0.949-1.2
				l1.351-4.95c0.133-0.566,0.066-1.083-0.2-1.55c-0.3-0.467-0.7-0.767-1.2-0.899l-4.399-1.2c0.566-0.833,0.666-1.917,0.3-3.25
				l-4.2-15.65C1829.917,693.5,1829.316,692.65,1828.45,692.25 M1825.85,693.9c1.301-0.367,2.117,0.1,2.45,1.399l4.2,15.65
				c0.333,1.267-0.15,2.083-1.45,2.45l-2.899,0.8l4.399,1.149l5.45,1.45l-1.35,4.95l-5.45-1.45c-4.4-1.1-7.684-2.533-9.851-4.3
				l-16.1,4.3c-1.3,0.367-2.116-0.083-2.45-1.35l-4.2-15.65c-0.333-1.3,0.15-2.133,1.45-2.5L1825.85,693.9 M1818.15,640.85
				l-1.75-1.05l-4.4,7.7l-3.5-2.05l4.4-7.65l-1.75-0.95l-4.351,7.601c-0.3,0.5-0.366,1.017-0.2,1.55c0.134,0.5,0.434,0.9,0.9,1.2
				l3.5,2.05c0.467,0.267,0.967,0.333,1.5,0.2c0.533-0.167,0.95-0.483,1.25-0.95L1818.15,640.85 M1754.45,692.25
				c-0.834-0.533-1.884-0.617-3.15-0.25h0.05l-25.8,6.9h-0.05c-2.566,0.699-3.5,2.333-2.8,4.899v0.05l4.2,15.65v-0.05
				c0.333,1.267,0.933,2.116,1.8,2.55c0.8,0.5,1.833,0.583,3.1,0.25l15.15-4.05c2.3,1.633,5.566,2.983,9.8,4.05h-0.05l5.45,1.45
				c0.533,0.133,1.033,0.066,1.5-0.2c0.467-0.3,0.783-0.7,0.949-1.2l1.351-4.95c0.133-0.566,0.066-1.083-0.2-1.55
				c-0.3-0.467-0.7-0.767-1.2-0.899l-4.399-1.2c0.566-0.833,0.666-1.917,0.3-3.25l-4.2-15.65
				C1755.917,693.5,1755.316,692.65,1754.45,692.25 M1751.85,693.9c1.301-0.367,2.117,0.1,2.45,1.399l4.2,15.65
				c0.333,1.267-0.15,2.083-1.45,2.45l-2.899,0.8l4.399,1.149l5.45,1.45l-1.35,4.95l-5.45-1.45c-4.4-1.1-7.684-2.533-9.851-4.3
				l-16.1,4.3c-1.3,0.367-2.116-0.083-2.45-1.35l-4.2-15.65c-0.333-1.3,0.15-2.133,1.45-2.5L1751.85,693.9 M1584.1,391.7
				c-0.566-0.1-1.066,0.033-1.5,0.4c-0.467,0.3-0.75,0.733-0.85,1.3l-5.1,31.6c-0.101,0.533,0.017,1.033,0.35,1.5
				c0.3,0.4,0.733,0.65,1.3,0.75l30.601,4.95c0.533,0.1,1.033,0,1.5-0.3c0.433-0.334,0.699-0.767,0.8-1.301l5.1-31.6
				c0.101-0.566,0-1.066-0.3-1.5c-0.333-0.467-0.767-0.75-1.3-0.85L1584.1,391.7 M1614.35,398.65l-5.1,31.6l-30.6-4.95l5.1-31.6
				L1614.35,398.65 M1613.45,320.6c-0.4-0.4-0.884-0.6-1.45-0.6h-31c-0.566,0-1.033,0.2-1.4,0.6c-0.399,0.367-0.6,0.833-0.6,1.4v32
				c0,0.566,0.2,1.05,0.6,1.45c0.367,0.366,0.834,0.55,1.4,0.55h31c0.566,0,1.05-0.184,1.45-0.55c0.366-0.4,0.55-0.884,0.55-1.45
				v-32C1614,321.433,1613.816,320.967,1613.45,320.6 M1581,322h31v32h-31V322 M1491.6,390.3c-0.333,0.434-0.449,0.934-0.35,1.5
				l8.2,49.3c0.1,0.567,0.383,1.018,0.85,1.351c0.434,0.3,0.934,0.399,1.5,0.3l49.3-8.2c0.567-0.1,1.017-0.366,1.351-0.8
				c0.267-0.467,0.35-0.983,0.25-1.55l-8.2-49.3c-0.1-0.566-0.35-1-0.75-1.3c-0.467-0.333-0.983-0.45-1.55-0.35l-49.3,8.2
				C1492.333,389.55,1491.9,389.833,1491.6,390.3 M1493.25,391.45l49.3-8.2l8.2,49.3l-49.3,8.2L1493.25,391.45 M1495.6,311.6
				c-0.399,0.367-0.6,0.833-0.6,1.4v50c0,0.566,0.2,1.05,0.6,1.45c0.367,0.366,0.834,0.55,1.4,0.55h50c0.566,0,1.05-0.184,1.45-0.55
				c0.366-0.4,0.55-0.884,0.55-1.45v-50c0-0.567-0.184-1.033-0.55-1.4c-0.4-0.4-0.884-0.6-1.45-0.6h-50
				C1496.434,311,1495.967,311.2,1495.6,311.6 M1497,363v-50h50v50H1497"/>
			<path fill="#DD824C" d="M1870.7,621.05l1.25,11.9c0.166,1.667,1.083,2.417,2.75,2.25l11.899-1.25
				c1.667-0.167,2.417-1.083,2.25-2.75l-1.25-11.9c-0.166-1.667-1.083-2.417-2.75-2.25l-11.899,1.25
				C1871.283,618.467,1870.533,619.383,1870.7,621.05 M1879.4,622.4c1-0.134,1.916,0.133,2.75,0.8c0.8,0.667,1.25,1.517,1.35,2.55
				c0.133,1.033-0.134,1.95-0.8,2.75c-0.7,0.8-1.55,1.267-2.55,1.4c-1.067,0.1-1.983-0.184-2.75-0.851
				c-0.801-0.667-1.268-1.517-1.4-2.55c-0.1-1.033,0.184-1.95,0.85-2.75C1877.483,622.95,1878.333,622.5,1879.4,622.4
				 M1911.55,638.95c0.7-1.533,0.283-2.65-1.25-3.351l-10.95-4.85c-1.5-0.7-2.6-0.283-3.3,1.25l-4.85,10.9
				c-0.7,1.566-0.3,2.683,1.2,3.35l11,4.9c1.5,0.666,2.6,0.233,3.3-1.301L1911.55,638.95 M1904.85,639.6
				c0.367,0.967,0.351,1.934-0.05,2.9c-0.433,0.967-1.133,1.617-2.1,1.95c-1,0.333-1.967,0.316-2.9-0.05
				c-0.967-0.467-1.616-1.167-1.95-2.101c-0.366-0.967-0.35-1.934,0.051-2.899c0.433-0.967,1.149-1.634,2.149-2
				c0.934-0.367,1.884-0.317,2.851,0.149C1903.833,637.917,1904.483,638.6,1904.85,639.6"/>
			<path fill="#E86A17" d="M1827.4,703.3c0-1.467-0.518-2.717-1.551-3.75s-2.3-1.55-3.8-1.55c-1.467,0-2.717,0.517-3.75,1.55
				c-0.166,0.167-0.3,0.333-0.399,0.5c-0.467-0.133-0.967-0.2-1.5-0.2c-1.467,0-2.717,0.518-3.75,1.551s-1.551,2.283-1.551,3.75
				c0,1.5,0.518,2.767,1.551,3.8s2.283,1.55,3.75,1.55c1.5,0,2.767-0.517,3.8-1.55c0.166-0.167,0.316-0.317,0.45-0.45
				c0.433,0.1,0.899,0.15,1.399,0.15c1.5,0,2.767-0.518,3.8-1.551S1827.4,704.8,1827.4,703.3 M1824.45,701
				c0.633,0.633,0.95,1.4,0.95,2.3c0,0.934-0.317,1.733-0.95,2.4c-0.667,0.633-1.467,0.95-2.4,0.95c-0.166,0-0.316,0-0.45,0
				c0.101-0.5,0.15-1,0.15-1.5c0-1.467-0.517-2.717-1.55-3.75c-0.167-0.167-0.317-0.301-0.45-0.4c0.633-0.667,1.4-1,2.3-1
				C1822.983,700,1823.783,700.333,1824.45,701 M1816.4,701.85c0.166,0,0.35,0.018,0.55,0.051c0.7,0.1,1.316,0.416,1.85,0.949
				c0.634,0.634,0.95,1.4,0.95,2.301c0,0.166,0,0.35,0,0.55c-0.133,0.7-0.45,1.316-0.95,1.85c-0.666,0.634-1.467,0.95-2.399,0.95
				c-0.9,0-1.667-0.316-2.301-0.95c-0.666-0.667-1-1.467-1-2.399c0-0.9,0.334-1.667,1-2.301
				C1814.733,702.184,1815.5,701.85,1816.4,701.85 M1454.2,774.25l-11.601-3.1l-5.149,19.3l11.6,3.149L1454.2,774.25 M1446.4,784.5
				l0.199-2.2l2.2,0.3l-0.2,2.2L1446.4,784.5 M1442,788.9l-0.65-4.101l4.101-0.649l0.649,4.149L1442,788.9 M1390,802.6l6-10.399
				l-17.3-10l-6,10.399L1390,802.6 M1380.3,790.35l2.9-1.199l1.25,2.949l-2.95,1.15L1380.3,790.35 M1387.95,796.8l-3.3-3.149
				l3.25-3.301l3.25,3.25L1387.95,796.8 M1357.3,777.8l19.3-5.2l-3.1-11.6l-19.3,5.2L1357.3,777.8 M1367.55,765.1l5.05,0.551l-0.6,5
				l-5.05-0.551L1367.55,765.1 M1366.35,772.2l-3.05,0.5l-0.5-3.101l3.05-0.5L1366.35,772.2"/>
			<path fill="#A6C9CB" d="M1383.2,715.15l-2.9,1.199l1.2,2.9l2.95-1.15L1383.2,715.15 M1363.3,698.7l3.05-0.5l-0.5-3.101l-3.05,0.5
				L1363.3,698.7"/>
			<path fill="#648587" d="M1456.05,699.3c-0.3-0.5-0.717-0.833-1.25-1l-11.6-3.1c-0.601-0.134-1.117-0.05-1.55,0.25
				c-0.5,0.3-0.817,0.7-0.95,1.2l-5.15,19.35c-0.2,0.533-0.133,1.033,0.2,1.5c0.2,0.467,0.6,0.767,1.2,0.9l11.6,3.1
				c0.533,0.167,1.05,0.117,1.55-0.15c0.434-0.267,0.717-0.683,0.851-1.25l5.149-19.3
				C1456.267,700.267,1456.25,699.767,1456.05,699.3 M1442.6,697.15l11.601,3.1l-5.15,19.35l-11.6-3.149L1442.6,697.15
				 M1370.75,719.15c0.133,0.467,0.45,0.85,0.95,1.149l17.3,10c0.5,0.267,1,0.367,1.5,0.3c0.566-0.199,0.983-0.517,1.25-0.949
				l6-10.4c0.267-0.533,0.316-1.05,0.15-1.55c-0.101-0.567-0.384-1-0.851-1.3l-17.35-9.95c-0.5-0.3-1-0.367-1.5-0.2
				c-0.533,0.1-0.934,0.417-1.2,0.95l-6,10.399C1370.667,718.066,1370.583,718.583,1370.75,719.15 M1396,718.2l-6,10.399l-17.3-10
				l6-10.399L1396,718.2 M1353.65,690.25c-0.567,0.133-0.967,0.45-1.2,0.95c-0.3,0.433-0.367,0.933-0.2,1.5l3.1,11.6
				c0.134,0.533,0.45,0.95,0.95,1.25c0.434,0.233,0.934,0.283,1.5,0.15l19.3-5.2c0.533-0.133,0.95-0.417,1.25-0.85
				c0.268-0.5,0.334-1.018,0.2-1.551l-3.1-11.6c-0.167-0.566-0.483-0.967-0.95-1.2c-0.5-0.3-1.017-0.383-1.55-0.25L1353.65,690.25
				 M1354.2,692.2l19.3-5.2l3.1,11.6l-19.3,5.2L1354.2,692.2"/>
			<path fill="#A64A0F" d="M1435.55,790c-0.2,0.533-0.133,1.033,0.2,1.5c0.2,0.467,0.6,0.767,1.2,0.9l11.6,3.1
				c0.533,0.167,1.05,0.117,1.55-0.15c0.434-0.267,0.717-0.683,0.851-1.25l5.149-19.3c0.167-0.533,0.15-1.033-0.05-1.5
				c-0.3-0.5-0.717-0.833-1.25-1l-11.6-3.1c-0.601-0.134-1.117-0.05-1.55,0.25c-0.5,0.3-0.817,0.7-0.95,1.2L1435.55,790
				 M1442.6,771.15l11.601,3.1l-5.15,19.35l-11.6-3.149L1442.6,771.15 M1379.7,780.45c-0.5-0.3-1-0.367-1.5-0.2
				c-0.533,0.1-0.934,0.417-1.2,0.95l-6,10.399c-0.333,0.467-0.417,0.983-0.25,1.551c0.133,0.467,0.45,0.85,0.95,1.149l17.3,10
				c0.5,0.267,1,0.367,1.5,0.3c0.566-0.199,0.983-0.517,1.25-0.949l6-10.4c0.267-0.533,0.316-1.05,0.15-1.55
				c-0.101-0.567-0.384-1-0.851-1.3L1379.7,780.45 M1396,792.2l-6,10.399l-17.3-10l6-10.399L1396,792.2 M1374.5,759.3
				c-0.5-0.3-1.017-0.383-1.55-0.25l-19.3,5.2c-0.567,0.133-0.967,0.45-1.2,0.95c-0.3,0.433-0.367,0.933-0.2,1.5l3.1,11.6
				c0.134,0.533,0.45,0.95,0.95,1.25c0.434,0.233,0.934,0.283,1.5,0.15l19.3-5.2c0.533-0.133,0.95-0.417,1.25-0.85
				c0.268-0.5,0.334-1.018,0.2-1.551l-3.1-11.6C1375.283,759.934,1374.967,759.533,1374.5,759.3 M1376.6,772.6l-19.3,5.2l-3.1-11.6
				l19.3-5.2L1376.6,772.6"/>
			<path fill="#9CC0C2" d="M1454.2,700.25l-11.601-3.1l-5.149,19.3l11.6,3.149L1454.2,700.25 M1446.4,710.5l0.199-2.2l2.2,0.3
				l-0.2,2.2L1446.4,710.5 M1446.1,714.3l-4.1,0.601l-0.65-4.101l4.101-0.649L1446.1,714.3 M1390,728.6l6-10.399l-17.3-10l-6,10.399
				L1390,728.6 M1380.3,716.35l2.9-1.199l1.25,2.949l-2.95,1.15L1380.3,716.35 M1391.15,719.6l-3.2,3.2l-3.3-3.149l3.25-3.301
				L1391.15,719.6 M1373.5,687l-19.3,5.2l3.1,11.6l19.3-5.2L1373.5,687 M1367.55,691.1l5.05,0.551l-0.6,5l-5.05-0.551L1367.55,691.1
				 M1366.35,698.2l-3.05,0.5l-0.5-3.101l3.05-0.5L1366.35,698.2"/>
			<path fill="#DAECE3" d="M1832.55,715.35l-4.399-1.149l-9.851-2.65c0.434,1.667,1.45,3.15,3.05,4.45
				c2.167,1.767,5.45,3.2,9.851,4.3L1832.55,715.35 M1812.95,634.9l2.55,1.5l-1.25,2.149l2.15,1.25l9.75-16.8
				C1820.95,623.934,1816.55,627.9,1812.95,634.9 M1744.3,711.55c0.434,1.667,1.45,3.15,3.05,4.45c2.167,1.767,5.45,3.2,9.851,4.3
				l1.35-4.95l-4.399-1.149L1744.3,711.55"/>
			<path fill="#9BA8A2" d="M1827.25,621.35c-0.434-0.3-0.917-0.399-1.45-0.3c-5.8,0.934-10.667,5.25-14.6,12.95
				c-0.267,0.467-0.316,0.95-0.15,1.45c0.067,0.333,0.233,0.616,0.5,0.85c-0.166,0.134-0.283,0.283-0.35,0.45l-0.05,0.1l1.75,0.95
				v-0.05l1.35,0.8l1.25-2.149l-2.55-1.5c3.6-7,8-10.967,13.2-11.9l-9.75,16.8l1.75,1.05l9.75-16.85
				c0.267-0.467,0.333-0.95,0.199-1.45C1827.967,622.017,1827.684,621.616,1827.25,621.35"/>
			<path fill="#B15011" d="M1816.95,701.9c-0.2-0.033-0.384-0.051-0.55-0.051c-0.9,0-1.667,0.334-2.301,1
				c-0.666,0.634-1,1.4-1,2.301c0,0.933,0.334,1.732,1,2.399c0.634,0.634,1.4,0.95,2.301,0.95c0.933,0,1.733-0.316,2.399-0.95
				c0.5-0.533,0.817-1.149,0.95-1.85c0-0.2,0-0.384,0-0.55c0-0.9-0.316-1.667-0.95-2.301
				C1818.267,702.316,1817.65,702,1816.95,701.9 M1825.4,703.3c0-0.899-0.317-1.667-0.95-2.3c-0.667-0.667-1.467-1-2.4-1
				c-0.899,0-1.667,0.333-2.3,1c0.133,0.1,0.283,0.233,0.45,0.4c1.033,1.033,1.55,2.283,1.55,3.75c0,0.5-0.05,1-0.15,1.5
				c0.134,0,0.284,0,0.45,0c0.934,0,1.733-0.317,2.4-0.95C1825.083,705.033,1825.4,704.233,1825.4,703.3z"/>
			<path fill="#985833" d="M1868.7,621.25l1.25,11.9c0.3,3,1.95,4.35,4.95,4.05l11.899-1.25c3-0.3,4.351-1.95,4.05-4.95l-1.25-11.9
				c-0.3-3-1.949-4.35-4.949-4.05l-11.9,1.25C1869.75,616.6,1868.4,618.25,1868.7,621.25 M1871.95,632.95l-1.25-11.9
				c-0.167-1.667,0.583-2.583,2.25-2.75l11.899-1.25c1.667-0.167,2.584,0.583,2.75,2.25l1.25,11.9
				c0.167,1.667-0.583,2.583-2.25,2.75l-11.899,1.25C1873.033,635.367,1872.116,634.617,1871.95,632.95 M1911.15,633.8h-0.051
				l-10.899-4.85h-0.05c-1.334-0.634-2.483-0.717-3.45-0.25c-1.033,0.3-1.851,1.133-2.45,2.5l-4.85,10.899
				c-0.634,1.334-0.733,2.5-0.301,3.5c0.301,1.034,1.134,1.867,2.5,2.5l11,4.9c2.7,1.2,4.684,0.434,5.95-2.3l4.851-10.9
				C1914.633,637.033,1913.883,635.033,1911.15,633.8 M1910.3,635.6c1.533,0.7,1.95,1.817,1.25,3.351l-4.85,10.899
				c-0.7,1.534-1.8,1.967-3.3,1.301l-11-4.9c-1.5-0.667-1.9-1.783-1.2-3.35l4.85-10.9c0.7-1.533,1.8-1.95,3.3-1.25L1910.3,635.6z"/>
			<path fill="#FF9657" d="M1882.15,623.2c-0.834-0.667-1.75-0.934-2.75-0.8c-1.067,0.1-1.917,0.55-2.551,1.35
				c-0.666,0.8-0.949,1.717-0.85,2.75c0.133,1.033,0.6,1.883,1.4,2.55c0.767,0.667,1.683,0.95,2.75,0.851
				c1-0.134,1.85-0.601,2.55-1.4c0.666-0.8,0.933-1.717,0.8-2.75C1883.4,624.717,1882.95,623.867,1882.15,623.2 M1879.55,623.9
				c0.601-0.067,1.15,0.083,1.65,0.449c0.467,0.4,0.733,0.917,0.8,1.551c0.066,0.633-0.083,1.183-0.45,1.649
				c-0.433,0.5-0.95,0.783-1.55,0.851c-0.633,0.066-1.184-0.101-1.65-0.5c-0.5-0.4-0.783-0.917-0.85-1.551
				c-0.066-0.633,0.1-1.183,0.5-1.649S1878.917,623.967,1879.55,623.9 M1904.8,642.5c0.4-0.967,0.417-1.934,0.05-2.9
				c-0.366-1-1.017-1.683-1.949-2.05c-0.967-0.467-1.917-0.517-2.851-0.149c-1,0.366-1.717,1.033-2.149,2
				c-0.4,0.966-0.417,1.933-0.051,2.899c0.334,0.934,0.983,1.634,1.95,2.101c0.934,0.366,1.9,0.383,2.9,0.05
				C1903.667,644.117,1904.367,643.467,1904.8,642.5 M1899.3,640c0.233-0.566,0.65-0.95,1.25-1.15
				c0.567-0.233,1.134-0.216,1.7,0.051c0.566,0.233,0.983,0.649,1.25,1.25c0.2,0.566,0.167,1.133-0.1,1.699
				c-0.233,0.601-0.634,1-1.2,1.2c-0.634,0.233-1.233,0.233-1.8,0c-0.567-0.3-0.95-0.733-1.15-1.3
				C1899.017,641.184,1899.033,640.6,1899.3,640z"/>
			<path fill="#AA633A" d="M1881.2,624.35c-0.5-0.366-1.05-0.517-1.65-0.449c-0.633,0.066-1.149,0.333-1.55,0.8
				s-0.566,1.017-0.5,1.649c0.066,0.634,0.35,1.15,0.85,1.551c0.467,0.399,1.018,0.566,1.65,0.5c0.6-0.067,1.117-0.351,1.55-0.851
				c0.367-0.467,0.517-1.017,0.45-1.649C1881.934,625.267,1881.667,624.75,1881.2,624.35 M1900.55,638.85
				c-0.6,0.2-1.017,0.584-1.25,1.15c-0.267,0.6-0.283,1.184-0.05,1.75c0.2,0.566,0.583,1,1.15,1.3c0.566,0.233,1.166,0.233,1.8,0
				c0.566-0.2,0.967-0.6,1.2-1.2c0.267-0.566,0.3-1.133,0.1-1.699c-0.267-0.601-0.684-1.017-1.25-1.25
				C1901.684,638.634,1901.117,638.616,1900.55,638.85z"/>
			<path fill="#829EAF" d="M1515.6,784.05c-0.3-0.399-0.683-0.649-1.149-0.75c-0.467-0.1-0.917-0.05-1.351,0.15l-7.899,4.1
				c-0.167,0.101-0.3,0.184-0.4,0.25c-0.233,0.233-0.417,0.5-0.55,0.8c-0.2,0.467-0.217,0.917-0.05,1.351l2.35,7.2
				c0.167,0.467,0.45,0.833,0.851,1.1l7.1,4.4c0.434,0.267,0.917,0.35,1.45,0.25c0.5-0.101,0.916-0.367,1.25-0.801l5.05-6.899
				c0.233-0.333,0.35-0.733,0.35-1.2c0-0.434-0.133-0.816-0.399-1.15L1515.6,784.05 M1514,785.25l2.35,3.1l4.25,5.7l-5.05,6.9
				l-6.05-3.75l-1.05-0.65l-2.351-7.2L1514,785.25 M1524.85,717.65l-3.1-2.7l-2.95-9c-0.133-0.4-0.35-0.717-0.649-0.95
				c-0.301-0.267-0.65-0.417-1.051-0.45l-9.649-0.95c-0.434-0.033-0.833,0.067-1.2,0.301c-0.367,0.199-0.634,0.5-0.8,0.899
				l-4.601,10.351c-0.232,0.5-0.25,1-0.05,1.5c0.167,0.467,0.483,0.833,0.95,1.1l5.1,2.55l5.101,8.8
				c0.2,0.367,0.483,0.634,0.85,0.801c0.334,0.166,0.717,0.232,1.15,0.199c0.399-0.066,0.75-0.232,1.05-0.5l9.85-8.949
				c0.268-0.268,0.467-0.584,0.601-0.95c0.1-0.367,0.1-0.733,0-1.101C1525.316,718.233,1525.117,717.917,1524.85,717.65
				 M1506.05,717.7l-3.399-1.75l4.6-10.351l6.8,0.7l2.851,0.25l1.399,4.351l1.7,5.199l3.5,3.051l-9.85,8.949l-3.75-6.449
				l-1.65-2.851L1506.05,717.7 M1528.3,689.3c-0.467,0.167-0.833,0.45-1.1,0.851l-4.4,7.1c-0.267,0.434-0.35,0.917-0.25,1.45
				c0.101,0.5,0.367,0.917,0.8,1.25l6.9,5.05c0.333,0.233,0.733,0.35,1.2,0.35c0.433,0,0.816-0.133,1.149-0.399l8.801-6.601
				c0.399-0.3,0.649-0.683,0.75-1.149c0.1-0.467,0.05-0.917-0.15-1.351l-4.1-7.899c-0.101-0.167-0.184-0.3-0.25-0.4
				c-0.233-0.233-0.5-0.417-0.801-0.55c-0.467-0.2-0.916-0.217-1.35-0.05L1528.3,689.3 M1528.9,691.2l7.199-2.351l0.25,0.5
				l3.851,7.4l-8.8,6.6l-3.45-2.5l-3.45-2.55L1528.9,691.2"/>
			<path fill="#BDE7FF" d="M1516.35,788.35l-2.35-3.1l-7.9,4.1l2.351,7.2l1.05,0.65L1516.35,788.35 M1509.9,721.65l3.75,6.449
				l9.85-8.949l-3.5-3.051l-1.7-5.199L1509.9,721.65 M1502.65,715.95l3.399,1.75l8-11.4l-6.8-0.7L1502.65,715.95 M1536.1,688.85
				l-7.199,2.351l-4.4,7.1l3.45,2.55l8.399-11.5L1536.1,688.85"/>
			<path fill="#D7F0FF" d="M1509.5,797.2l6.05,3.75l5.05-6.9l-4.25-5.7L1509.5,797.2 M1518.3,710.9l-1.399-4.351l-2.851-0.25
				l-8,11.4l2.2,1.1l1.65,2.851L1518.3,710.9 M1527.95,700.85l3.45,2.5l8.8-6.6l-3.851-7.4L1527.95,700.85z"/>
			<path fill="#90B2B4" d="M1442,714.9l4.1-0.601l-0.649-4.149l-4.101,0.649L1442,714.9 M1446.6,708.3l-0.199,2.2l2.199,0.3l0.2-2.2
				L1446.6,708.3 M1387.95,722.8l3.2-3.2l-3.25-3.25l-3.25,3.301L1387.95,722.8 M1372.6,691.65l-5.05-0.551l-0.6,5l5.05,0.551
				L1372.6,691.65"/>
			<path fill="#DB6415" d="M1441.35,784.8l0.65,4.101l4.1-0.601l-0.649-4.149L1441.35,784.8 M1384.65,793.65l3.3,3.149l3.2-3.2
				l-3.25-3.25L1384.65,793.65 M1372.6,765.65l-5.05-0.551l-0.6,5l5.05,0.551L1372.6,765.65z"/>
			<path fill="#F77118" d="M1446.6,782.3l-0.199,2.2l2.199,0.3l0.2-2.2L1446.6,782.3 M1383.2,789.15l-2.9,1.199l1.2,2.9l2.95-1.15
				L1383.2,789.15 M1363.3,772.7l3.05-0.5l-0.5-3.101l-3.05,0.5L1363.3,772.7"/>
			<path fill="#AD763E" d="M1605.1,424.5l2.851-17.8l-20.601,14.95L1605.1,424.5 M1587.85,399.4l-2.85,17.8l19.65-15.101
				L1587.85,399.4 M1589,349h18v-18L1589,349 M1586,327v18l17-18H1586 M1536.95,398.35l-23,32.2l27.6-4.6L1536.95,398.35
				 M1502.4,398.05l4.6,27.601l23.05-32.2L1502.4,398.05 M1539,355v-28l-28,28H1539 M1533,321h-28v28L1533,321z"/>
			<path fill="#9C6A38" d="M1608.6,402.75l-3.949-0.65L1585,417.2l-0.65,3.95l3,0.5l20.601-14.95L1608.6,402.75 M1607,331v-4h-4
				l-17,18v4h3L1607,331 M1535.95,392.45l-5.9,1l-23.05,32.2l1,5.899l5.95-1l23-32.2L1535.95,392.45 M1505,355h6l28-28v-6h-6l-28,28
				V355z"/>
		</g>
	</g>
</g>
</svg>
